<svg width="256" height="256" viewBox="0 0 256 256" fill="none" xmlns="http://www.w3.org/2000/svg">
    <path d="M125.195 0H51.5C43.9412 0 36.6927 2.69696 31.3473 7.49795C26.002 12.2988 23 18.8105 23 25.6V230.4C23 237.19 26.002 243.701 31.3473 248.502C36.6927 253.303 43.9412 256 51.5 256H203.5C211.059 256 218.307 253.303 223.653 248.502C228.998 243.701 232 237.19 232 230.4V95.936C232 89.1477 228.998 82.6368 223.653 77.8368L145.347 7.49682C140.002 2.69639 132.754 0.000142222 125.195 0Z" fill="#7e22ce" />
    <path d="M75.8488 202V75.1H133.809C143.289 75.1 151.329 76.72 157.929 79.96C164.529 83.2 169.509 87.82 172.869 93.82C176.349 99.82 178.089 107.08 178.089 115.6C178.089 124.12 176.349 131.44 172.869 137.56C169.509 143.56 164.529 148.18 157.929 151.42C151.329 154.66 143.289 156.28 133.809 156.28H103.749V202H75.8488ZM103.749 134.68H129.129C136.329 134.68 141.789 133.06 145.509 129.82C149.349 126.58 151.269 121.84 151.269 115.6C151.269 109.36 149.349 104.68 145.509 101.56C141.789 98.44 136.329 96.88 129.129 96.88H103.749V134.68Z" fill="white" />
</svg>
